<svg width="78" height="79" viewBox="0 0 78 79" fill="none" xmlns="http://www.w3.org/2000/svg">
<rect width="78" height="79" rx="19" fill="#FF6218"/>
<path opacity="0.49" fill-rule="evenodd" clip-rule="evenodd" d="M51.9086 31.1054L52.0753 31.2847C52.02 31.2245 51.9644 31.1648 51.9086 31.1054C51.8626 31.0563 51.8165 31.0074 51.77 30.959L51.9086 31.1054Z" fill="white"/>
<path opacity="0.49" fill-rule="evenodd" clip-rule="evenodd" d="M26.6148 33.8003C26.522 33.8827 26.4267 33.9696 26.3364 34.0542C26.4281 33.9685 26.5209 33.8839 26.6148 33.8003Z" fill="white"/>
<path d="M27.4415 56.9844C32.3308 55.2198 43.874 52.7494 50.9322 56.9844C51.1711 55.7597 51.9101 53.1028 53.1728 50.7299C53.6623 49.8099 53.5217 48.6259 52.6125 48.1165C49.3884 46.31 42.1236 44.3731 25.9603 49.1542C12.4567 52.1014 10.1859 24.3819 28.9843 32.1728M33.6174 36.9126C32.1257 34.7015 30.5567 33.1629 28.9843 32.1728M28.9843 32.1728C30.9438 14.3301 57.4793 22.6351 45.6012 37.718C45.5285 37.8104 45.3967 37.7287 45.4513 37.6246C54.6266 20.119 72.9143 35.4043 59.0934 46.2869" stroke="white" stroke-width="3.42618" stroke-linecap="round"/>
</svg>
