<svg width="512" height="512" viewBox="0 0 512 512" fill="none" xmlns="http://www.w3.org/2000/svg">
<rect width="512" height="512" rx="138.3" fill="white"/>
<path opacity="0.49" fill-rule="evenodd" clip-rule="evenodd" d="M377.841 226.415L379.055 227.72C378.652 227.282 378.247 226.847 377.841 226.415C377.506 226.058 377.171 225.702 376.833 225.349L377.841 226.415Z" fill="#10442A"/>
<path opacity="0.49" fill-rule="evenodd" clip-rule="evenodd" d="M193.727 246.033C193.052 246.633 192.358 247.265 191.701 247.881C192.368 247.257 193.044 246.642 193.727 246.033Z" fill="#10442A"/>
<path d="M438.877 264.284C433.128 298.214 419.457 330.334 398.957 358.07C378.458 385.806 351.701 408.386 320.832 424C289.963 439.614 222.26 439.601 191.364 424C160.468 408.398 133.681 385.825 113.15 358.09C92.6192 330.354 78.9151 298.227 73.136 264.284C72.0324 257.805 72.3681 251.165 74.1195 244.828C75.8709 238.492 78.9957 232.612 83.2751 227.601C87.6016 222.507 92.9967 218.412 99.0828 215.605C105.169 212.798 111.799 211.345 118.509 211.349H393.488C400.188 211.351 406.808 212.806 412.883 215.614C418.958 218.421 424.343 222.512 428.661 227.601C432.954 232.606 436.093 238.483 437.857 244.819C439.622 251.156 439.97 257.799 438.877 264.284Z" fill="url(#paint0_linear_2293_33)"/>
<path d="M394.775 278.57C390.413 304.318 380.038 328.693 364.482 349.74C348.926 370.787 328.622 387.922 305.197 399.77C281.773 411.618 230.396 411.609 206.951 399.77C183.506 387.931 163.179 370.802 147.599 349.755C132.019 328.708 121.62 304.328 117.235 278.57C116.397 273.654 116.652 268.615 117.981 263.807C119.31 258.998 121.681 254.537 124.929 250.734C128.212 246.868 132.306 243.761 136.924 241.631C141.543 239.5 146.574 238.398 151.666 238.401H360.332C365.417 238.402 370.44 239.507 375.05 241.637C379.66 243.768 383.746 246.872 387.023 250.734C390.28 254.532 392.662 258.991 394.001 263.8C395.341 268.608 395.605 273.65 394.775 278.57Z" fill="white"/>
<path d="M173.308 151.747C173.308 153.361 174.617 154.67 176.231 154.67H202.662C207.181 154.67 210.845 158.334 210.845 162.853V192.133C210.845 193.747 212.154 195.056 213.768 195.056H253.856C255.469 195.055 256.777 193.747 256.777 192.133V152.355C256.777 150.742 255.47 149.433 253.856 149.433H227.424C222.904 149.433 219.24 145.769 219.24 141.249V111.971C219.24 110.357 217.932 109.048 216.318 109.048L176.231 109.048C174.617 109.048 173.308 110.357 173.308 111.971V151.747Z" fill="url(#paint1_linear_2293_33)"/>
<path d="M318.88 131.308C318.88 129.694 317.571 128.385 315.957 128.385H289.526C285.006 128.385 281.343 124.721 281.343 120.201V90.9219C281.343 89.3078 280.034 87.9991 278.42 87.999L238.332 87.999C236.718 87.9992 235.41 89.3079 235.41 90.9219L235.41 130.699C235.41 132.313 236.718 133.621 238.332 133.621L264.764 133.621C269.283 133.621 272.947 137.285 272.947 141.804V171.084C272.947 172.698 274.255 174.007 275.869 174.007H315.957C317.571 174.007 318.88 172.698 318.88 171.084V131.308Z" fill="url(#paint2_linear_2293_33)"/>
<defs>
<linearGradient id="paint0_linear_2293_33" x1="256" y1="211.349" x2="256" y2="435.706" gradientUnits="userSpaceOnUse">
<stop stop-color="#10442A"/>
<stop offset="1" stop-color="#1E6642"/>
</linearGradient>
<linearGradient id="paint1_linear_2293_33" x1="173.308" y1="152.052" x2="256.777" y2="152.052" gradientUnits="userSpaceOnUse">
<stop stop-color="#10442A"/>
<stop offset="1" stop-color="#1E6642"/>
</linearGradient>
<linearGradient id="paint2_linear_2293_33" x1="318.88" y1="131.003" x2="235.41" y2="131.003" gradientUnits="userSpaceOnUse">
<stop stop-color="#10442A"/>
<stop offset="1" stop-color="#1E6642"/>
</linearGradient>
</defs>
</svg>
